<?xml version="1.0" encoding="UTF-8"?>
<!-- Generator: visioncortex VTracer 0.6.4 -->
<svg version="1.1" xmlns="http://www.w3.org/2000/svg" width="400" height="400">
<path d="M0 0 C11.702480267692692 6.416313168579176 18.315832754725363 17.534858465064843 24.2578125 29 C24.719296874999998 29.881718750000005 25.180781249999995 30.763437499999995 25.65625 31.671875 C29.89848945482902 40.372518977420064 32.71393106756307 49.68389367310263 35.2578125 59 C35.44150390624998 59.67256835937499 35.62519531250001 60.34513671875 35.814453125 61.0380859375 C44.09698093807236 93.52473387363446 38.79115955705686 133.76080019595312 25.2578125 164 C16.755182814121724 164.3601113749313 8.646908683861966 163.25277169679006 0.2578125 162 C0.6561328125000045 162.9551953125 1.054453125000009 163.910390625 1.46484375 164.89453125 C10.464672420571276 186.73789494619615 10.464672420571276 186.73789494619615 7.48828125 195.18359375 C1.392874299224502 208.35606495073952 -11.653867562442485 222.94112004162832 -23.7421875 231 C-24.109631244454135 233.2909341568863 -24.109631244454135 233.2909341568863 -23.9296875 235.953125 C-23.904228515624993 236.9585131835937 -23.878769531249986 237.96390136718753 -23.8525390625 238.999755859375 C-23.81612304687502 240.07233642578126 -23.779707031249984 241.14491699218752 -23.7421875 242.25 C-23.440472051127927 260.13193359915914 -26.536813018893383 275.27905749557715 -38.7421875 289 C-41.511962817894585 291.2967945600574 -44.330227940846044 293.35057135131075 -47.32421875 295.34375 C-53.41492984734964 299.5157395077161 -54.337328208415954 303.9046713307077 -55.7421875 311 C-58.61482590834311 324.9316825118453 -58.61482590834311 324.9316825118453 -56.52734375 338.046875 C-55.958867187500005 338.60890625 -55.39039062500001 339.1709375 -54.8046875 339.75 C-54.16917968749999 340.41515625 -53.53367187499998 341.0803125 -52.87890625 341.765625 C-52.17378906250002 342.50296875 -51.468671874999984 343.2403125 -50.7421875 344 C-49.182200598102725 345.8177700867082 -47.64111104705012 347.65189171178514 -46.1171875 349.5 C-45.40304687499997 350.3559375 -44.68890625 351.211875 -43.953125 352.09375 C-41.7421875 354.99999999999994 -41.7421875 354.99999999999994 -40.806884765625 356.845947265625 C-37.07160593090225 364.05365523594554 -30.83115590422551 367.07499751494606 -23.9296875 370.9375 C-21.627908791484742 372.25293734555174 -19.33179589199591 373.5779259039744 -17.03515625 374.90234375 C-16.019616699218773 375.47460693359375 -15.004077148437489 376.0468701171875 -13.957763671875 376.636474609375 C-12.861053466796875 377.3114196777344 -12.861053466796875 377.3114196777344 -11.7421875 378 C-11.7421875 378.33 -11.7421875 378.66 -11.7421875 379 C-13.824873433887603 379.0812608673627 -15.908474084839327 379.13930839017803 -17.9921875 379.1875 C-19.15234375 379.2223046875 -20.3125 379.257109375 -21.5078125 379.29296875 C-24.964871566835825 378.97982934177213 -26.25784313042027 378.3429089227967 -28.7421875 376 C-28.7421875 376.99 -28.7421875 377.98 -28.7421875 379 C-31.929687500000057 379.4609375 -31.929687500000057 379.4609375 -35.7421875 379 C-37.96787692572417 376.87505556917284 -39.28900926162362 374.3160930199436 -40.7421875 371.625 C-41.59298217003345 370.1576520414204 -42.445851840608555 368.69150526579756 -43.30078125 367.2265625 C-43.71183105468748 366.506298828125 -44.122880859375016 365.78603515625 -44.54638671875 365.0439453125 C-46.16992902510799 362.2688746328697 -47.958461196863425 359.6309672574472 -49.8046875 357 C-50.3525390625 356.21625 -50.900390625 355.4325 -51.46484375 354.625 C-51.886367187500014 354.08875 -52.30789062500003 353.5525 -52.7421875 353 C-53.072187499999984 353 -53.402187500000025 353 -53.7421875 353 C-53.57718749999998 354.134375 -53.412187500000016 355.26875 -53.2421875 356.4375 C-52.387917420056 363.9213871792275 -52.6644852618802 371.48015006640554 -52.7421875 379 C-55.0521875 379 -57.362187500000005 379 -59.7421875 379 C-59.77957031250003 377.7328515625 -59.816953125 376.465703125 -59.85546875 375.16015625 C-59.921185429062575 373.4609106913818 -59.98763073176099 371.7616932027359 -60.0546875 370.0625 C-60.07724609374998 369.23169921875 -60.09980468750001 368.4008984375 -60.123046875 367.544921875 C-60.34697694853895 362.3131010659532 -61.22676971424556 357.93208907500787 -63.022705078125 353.016357421875 C-68.36670710491671 338.03973280725927 -65.12836349425947 322.19071792090193 -62.7421875 307 C-63.78632812500001 307.776015625 -64.83046875000002 308.55203125 -65.90625 309.3515625 C-74.51326022222509 315.69080401505585 -83.25190434676239 321.77764885554717 -92.2421875 327.5625 C-93.58337646484375 328.43672607421877 -93.58337646484375 328.43672607421877 -94.95166015625 329.32861328125 C-107.8142106620416 337.5086708874355 -122.22361696245025 342.35825942061786 -137.5830078125 339.46484375 C-144.5319121457552 337.7293957895964 -151.03758061869354 335.5069227782394 -157.6171875 332.6875 C-158.6144384765625 332.26670166015623 -159.611689453125 331.8459033203125 -160.63916015625 331.412353515625 C-174.825298178193 325.3528552754595 -188.9426062639625 318.89979061801876 -202.7421875 312 C-202.4160546875 312.7644140625 -202.089921875 313.528828125 -201.75390625 314.31640625 C-193.2568523691624 335.1454675331152 -192.79261855207815 356.9952587187212 -196.7421875 379 C-199.0521875 379 -201.3621875 379 -203.7421875 379 C-206.17332318884166 366.6286562930718 -205.31442947722692 354.03505332803826 -201.7421875 342 C-209.47474669517572 347.63395231548293 -217.382366439479 354.280357878958 -221.7421875 363 C-221.97445210247048 365.7126211597172 -222.16154985463845 368.4077312569073 -222.3046875 371.125 C-222.36946289062502 372.25615234375005 -222.36946289062502 372.25615234375005 -222.435546875 373.41015625 C-222.54167069563647 375.27321887895135 -222.64243750721215 377.1365852411123 -222.7421875 379 C-225.0521875 379 -227.3621875 379 -229.7421875 379 C-229.41218750000002 378.01 -229.0821875 377.02 -228.7421875 376 C-229.33515625 376.47953125 -229.928125 376.9590625 -230.5390625 377.453125 C-238.61118960574439 381.3513717486278 -251.68242741761438 380.90015704294854 -260.138671875 378.24853515625 C-263.71619509333505 376.6485414772665 -266.98745246643944 374.61428372481356 -270.32421875 372.5703125 C-291.9762104559467 359.40550471361223 -321.880068711916 353.2340967529215 -346.7421875 350 C-346.7421875 347.36 -346.7421875 344.72 -346.7421875 342 C-311.8604954635431 346.761513287293 -274.8025668312265 356.1816842443781 -245.7421875 377 C-236.48366648726318 373.2971375159926 -236.48366648726318 373.2971375159926 -229.32421875 366.8515625 C-228.71138156522585 364.68353907389104 -228.71138156522585 364.68353907389104 -228.31640625 362.421875 C-225.60523977894707 350.9870232173278 -214.88206564427549 342.0347874700128 -205.4296875 336.03125 C-204.8728125 335.6909375 -204.3159375 335.350625 -203.7421875 335 C-205.73028118614243 325.78460103129277 -207.98228640272347 317.59348367673505 -212.5703125 309.2578125 C-213.7421875 307 -213.7421875 307 -213.7421875 305 C-214.4576171875 304.724140625 -215.173046875 304.44828125 -215.91015625 304.1640625 C-229.84544364734603 298.4361788525392 -238.77667861371611 290.1233932617083 -244.9296875 276.33984375 C-247.52688759624192 269.7036155629113 -248.80735865830204 263.0481174512228 -249.7421875 256 C-250.7321875 256.66 -251.72218750000002 257.32 -252.7421875 258 C-254.92968749999991 257.625 -254.92968749999991 257.625 -256.7421875 257 C-256.59781250000003 255.72125 -256.4534375 254.4425 -256.3046875 253.125 C-256.214453125 252.30128906250002 -256.12421875 251.47757812500004 -256.03125 250.62890625 C-255.8441990653214 248.92775383055823 -255.65184121539636 247.22717299791736 -255.453125 245.52734375 C-255.26882719952584 243.86603072001157 -255.11181822479224 242.20149174393293 -254.98046875 240.53515625 C-254.7421875 238 -254.7421875 238 -254.22265625 235.49609375 C-253.8073492261177 232.5798169559255 -253.79273884576884 230.80418556017116 -254.7421875 228 C-257.5625111856298 225.23543230156554 -260.67561473531157 223.05186801681742 -263.90234375 220.80078125 C-294.67673542362644 199.07074184437008 -312.08593929487324 160.20331130447224 -318.91015625 124.29296875 C-320.1007156132019 116.62047507603233 -320.18386537714446 108.93328422579134 -320.1796875 101.1875 C-320.1800903320312 100.419541015625 -320.1804931640625 99.65158203125 -320.180908203125 98.8603515625 C-320.12017761584303 78.68104331942507 -316.06400202477516 61.41293934972964 -307.6572265625 43.0791015625 C-306.3117559794853 40.021997110804946 -305.2291597994813 36.899392512724525 -304.1171875 33.75 C-300.97289130917727 25.501462992741757 -296.70014312413105 20.76194265868014 -288.7421875 17 C-282.38875449033674 14.826457128273098 -275.73257745566895 16.294287237682894 -269.8046875 19.0625 C-257.98700730723175 25.446974283709167 -248.55206493356712 35.21192789547833 -240.4296875 45.75 C-223.03393573746308 68.29576984812543 -196.17706307934654 94.61052386589209 -168.7421875 104 C-165.27852858019395 103.686335319401 -163.30040001444192 102.04848618967742 -160.6171875 99.9375 C-155.17234607778582 95.97983168265924 -149.36679768877664 93.44832409951057 -143.16357421875 90.929443359375 C-138.23186674779825 88.87465445325563 -134.75589957838417 86.51503875955463 -130.7421875 83 C-130.0821875 83 -129.4221875 83 -128.7421875 83 C-128.4121875 82.01 -128.0821875 81.02 -127.7421875 80 C-125.67968749999997 79.31249999999999 -125.67968749999997 79.31249999999999 -123.7421875 79 C-121.8860969593982 81.11226970375778 -120.80544088923335 82.42775449427961 -120.4921875 85.26171875 C-121.16596985490003 91.79951316238922 -123.1506121407428 96.51323911906832 -126.7421875 102 C-125.4221875 102.66 -124.10218750000001 103.32 -122.7421875 104 C-123.07218750000001 105.98 -123.4021875 107.95999999999998 -123.7421875 110 C-109.64077933865656 102.0445595549943 -98.16854132213766 91.99396965326618 -86.599609375 80.79443359375 C-85.0801974245864 79.32654744291666 -83.5460527985573 77.87392461678465 -82.0078125 76.42578125 C-70.27528138843945 65.1717044213577 -61.62889804022399 51.17676849531024 -52.90234375 37.57421875 C-47.96523965002871 29.94087863053788 -42.883619185211614 22.632478988505184 -36.9296875 15.75 C-36.41494873046872 15.154453125000003 -35.9002099609375 14.55890625 -35.369873046875 13.9453125 C-25.963406329944974 3.3726551219333096 -14.939270770478686 -5.447939198351211 0 0 Z M-25.32421875 12.359375 C-42.2985152331957 31.99905688138346 -46.53157710824087 56.013688015469995 -47.1796875 81.0625 C-47.750891146998924 99.05429046383843 -50.03069677951447 115.5370892665523 -54.31494140625 133.023193359375 C-54.8126047511152 134.98873557298242 -54.8126047511152 134.98873557298242 -54.7421875 137 C-53.09218750000002 137 -51.44218749999999 137 -49.7421875 137 C-48.35074541843693 139.78288416312617 -48.97750205142404 141.84582691316155 -49.2421875 144.9375 C-49.34403786719173 153.31700748259144 -45.292073152132616 157.19911449425337 -39.7421875 163 C-36.69248194146803 166.75348376434707 -34.193144216356245 170.03947612008153 -33.7421875 175 C-35.06218749999999 175.33 -36.382187499999986 175.66 -37.7421875 176 C-37.16584828258078 179.66889111576634 -36.05311211594477 182.92662153393593 -34.67236328125 186.367919921875 C-30.835352878928234 195.93252347478196 -27.110978567999723 206.54792268481862 -27.7421875 217 C-28.072187499999984 217.66 -28.402187500000025 218.32 -28.7421875 219 C-28.4245509730153 220.99896910843523 -28.4245509730153 220.99896910843523 -27.8046875 223.125 C-27.610039062499993 223.849453125 -27.415390624999986 224.57390625 -27.21484375 225.3203125 C-26.980878906249984 226.15175781250002 -26.980878906249984 226.15175781250002 -26.7421875 227 C-23.782977137792273 227.33486308738068 -23.782977137792273 227.33486308738068 -22.26953125 225.671875 C-21.74488281250001 225.03765625 -21.220234375000018 224.4034375 -20.6796875 223.75 C-20.066093749999993 223.0139453125 -19.452499999999986 222.277890625 -18.8203125 221.51953125 C-17.791640625000014 220.27236328125002 -17.791640625000014 220.27236328125002 -16.7421875 219 C-15.973906250000027 218.1169921875 -15.205624999999998 217.233984375 -14.4140625 216.32421875 C-9.694633657230725 210.84047989024134 -5.207753741148736 205.19204700546499 -0.9921875 199.3125 C-0.5373901367187273 198.71945068359375 -0.08259277343751137 198.1264013671875 0.385986328125 197.515380859375 C2.15209016468026 194.96620976552498 3.2885450239749616 193.09165024237217 3.19970703125 189.93603515625 C2.709566449144745 187.54919421081902 2.032596700850604 185.31031999083802 1.2578125 183 C0.9813085937499864 182.11030517578126 0.7048046874999727 181.2206103515625 0.419921875 180.303955078125 C-0.7914450687800922 176.46052737655455 -2.06808662438425 172.64018117742785 -3.3515625 168.8203125 C-3.658359375000032 167.884453125 -3.965156250000007 166.94859375 -4.28125 165.984375 C-4.561782226562514 165.146162109375 -4.842314453125027 164.30794921875 -5.13134765625 163.4443359375 C-5.7421875 161 -5.7421875 161 -5.7421875 156 C2.837812499999984 156.33 11.417812499999968 156.66 20.2578125 157 C22.922509904166702 150.3382564895833 25.20141510082476 144.19848605912225 26.8828125 137.3125 C27.086484374999998 136.52939453125 27.290156249999995 135.7462890625 27.5 134.939453125 C30.706229806461977 122.0425992560584 31.610347856484736 109.22060309719399 31.573486328125 95.994140625 C31.570324080744456 93.63364458031582 31.593910725037745 91.27440537414108 31.619140625 88.9140625 C31.676962204848678 75.22182343554952 30.10266708968709 61.79225269330388 25.5078125 48.8125 C25.123752441406282 47.70152954101562 25.123752441406282 47.70152954101562 24.73193359375 46.568115234375 C19.266120139572763 31.243081309055263 10.973034774012717 14.240524473447124 -3.7421875 6 C-11.372959568266651 3.6520701328410325 -19.575997969004163 7.013690688261569 -25.32421875 12.359375 Z M-293.43359375 30.984375 C-295.02330600299194 33.25895023404593 -296.39838622579373 35.57212374828281 -297.7421875 38 C-298.47888671875 39.293574218749995 -298.47888671875 39.293574218749995 -299.23046875 40.61328125 C-315.7655484235396 71.5043990897135 -316.7655568951046 108.87243445642679 -307.0546875 142.0625 C-297.83381524653095 171.943870827755 -281.3755533894727 201.08699220889093 -255.7421875 220 C-253.5841204225364 220.75303181818452 -253.5841204225364 220.75303181818452 -251.7421875 221 C-251.5836328125 219.9468359375 -251.425078125 218.893671875 -251.26171875 217.80859375 C-248.76391856045677 202.0511164128743 -245.06383458793863 184.91752325046173 -233.7421875 173 C-232.7521875 172.34 -231.76218749999998 171.68 -230.7421875 171 C-231.39803939430854 167.3900762051686 -231.39803939430854 167.3900762051686 -232.7421875 164 C-232.81252518956666 162.12620394994434 -232.82648969749408 160.2499889844909 -232.8046875 158.375 C-232.7956640625 157.372109375 -232.78664062500002 156.36921875 -232.77734375 155.3359375 C-232.7657421875 154.565078125 -232.754140625 153.79421875 -232.7421875 153 C-231.0921875 152.34 -229.4421875 151.68 -227.7421875 151 C-227.909765625 150.16597656250002 -228.07734375 149.33195312499998 -228.25 148.47265625 C-229.54709341632181 141.30580465222184 -229.84433646154494 135.9438726987807 -227.7421875 129 C-226.75106344932738 125.20932182644725 -226.8018434355477 122.67059808986781 -227.78125 118.88671875 C-228.02939453125 117.89792724609373 -228.2775390625 116.90913574218752 -228.533203125 115.890380859375 C-228.80841796875 114.83343017578125 -229.0836328125 113.77647949218749 -229.3671875 112.6875 C-231.31153295665968 104.97835071403873 -233.13193396558694 97.28327134019558 -234.649658203125 89.478271484375 C-238.6704725029525 68.84405553697025 -245.83539512111713 53.68439014831199 -258.7421875 37 C-259.1714453125 36.3902734375 -259.600703125 35.780546875 -260.04296875 35.15234375 C-264.30790561181783 29.336520756612074 -271.7932398460755 24.27523975398705 -278.8671875 22.6875 C-285.17314681133473 23.196045105752802 -289.36775790173175 26.21429506715871 -293.43359375 30.984375 Z M-50.7421875 47 C-52.29754101699871 49.2739086505829 -53.80844356564552 51.562623010543064 -55.3046875 53.875 C-62.41919356627295 64.67701045469309 -70.54891621967272 74.21737585921255 -79.42333984375 83.59765625 C-80.48755856210562 84.72925053327191 -81.53382057633974 85.87771684370293 -82.57421875 87.03125 C-85.22458205331009 89.87619693823662 -87.87375863412598 92.12866784948619 -91.171875 94.18359375 C-98.43985709699479 98.51472055037289 -98.43985709699479 98.51472055037289 -103.13671875 105.25 C-103.57605088643976 107.46978342622194 -103.95183733390911 109.70325309329954 -104.2578125 111.9453125 C-105.19583844956065 117.86092776255185 -108.40329305568159 121.63067613649253 -112.4921875 125.8125 C-116.40446709114016 128.44576510942125 -120.22254278639352 129.76463044494756 -124.7421875 131 C-125.07218749999998 130.67000000000002 -125.4021875 130.34 -125.7421875 130 C-125.162109375 129.6712890625 -124.58203125 129.342578125 -123.984375 129.00390625 C-116.0524115254847 124.17404730264661 -111.08183475126373 118.12462427992853 -108.7421875 109 C-113.67394949084627 110.88372482951709 -118.39493479257922 113.19107213706761 -123.126953125 115.521484375 C-127.00214838667529 117.37449652550669 -130.4202058958066 118.51235756243258 -134.7421875 119 C-134.3815310698718 115.8743109388891 -133.1855050160977 114.18678967957021 -131.1796875 111.875 C-128.52662574945495 109.37395127398241 -128.52662574945495 109.37395127398241 -128.7421875 107 C-134.6821875 107.99000000000001 -134.6821875 107.99000000000001 -140.7421875 109 C-140.04093749999998 108.34 -139.3396875 107.68 -138.6171875 107 C-131.671414497967 100.04743944017913 -131.671414497967 100.04743944017913 -128.7421875 91 C-152.5818356147406 99.57465443460714 -152.5818356147406 99.57465443460714 -169.7421875 117 C-170.4021875 117 -171.0621875 117 -171.7421875 117 C-171.41218750000002 114.36000000000001 -171.0821875 111.72 -170.7421875 109 C-171.8971875 108.52562499999999 -173.0521875 108.05125000000001 -174.2421875 107.5625 C-194.55717386666058 98.4382416475249 -213.38002745670275 84.74610226658854 -228.9296875 68.8125 C-229.8578125 67.884375 -230.7859375 66.95625 -231.7421875 66 C-232.4021875 66 -233.0621875 66 -233.7421875 66 C-233.461171875 67.2645703125 -233.18015624999998 68.529140625 -232.890625 69.83203125 C-232.70725585937498 70.6578369140625 -232.52388671875 71.483642578125 -232.3349609375 72.33447265625 C-231.9487001950076 74.07137330968166 -231.5613826766923 75.80803939473108 -231.1728515625 77.54443359375 C-228.57450040607398 89.17566992550866 -226.1390507397088 100.81240922687932 -224.08642578125 112.553466796875 C-223.37229787325276 116.62461617900266 -222.61328638485966 120.6655982262921 -221.69140625 124.6953125 C-220.83767946601873 128.44609861231984 -220.2369950912489 132.1829128675085 -219.7421875 136 C-219.00113458961752 141.4226252648623 -218.02597175214373 146.68146524111876 -216.7421875 152 C-219.0521875 147.38 -221.3621875 142.76 -223.7421875 138 C-226.10763725903644 145.0963492771093 -221.94091715051394 154.11064709505638 -219.7421875 161 C-220.69093750000002 160.505 -221.6396875 160.01 -222.6171875 159.5 C-225.4649691598285 157.85575631080508 -225.4649691598285 157.85575631080508 -227.7421875 158 C-228.4764041019614 164.75479273804513 -226.01810702349488 169.18524284579658 -222.7421875 175 C-224.72218750000002 174.34 -226.7021875 173.68 -228.7421875 173 C-238.60012651205406 186.71981202708557 -242.8369255787515 201.38115805015553 -245.959228515625 217.730224609375 C-246.4308706699266 220.19367986783143 -246.9149911208542 222.65445716109292 -247.400390625 225.115234375 C-247.70647509316325 226.69516817249908 -248.01183889870498 228.27524179330808 -248.31640625 229.85546875 C-248.46011154174806 230.58372360229492 -248.6038168334961 231.31197845458985 -248.7518768310547 232.0623016357422 C-249.51350410327893 236.0977297514213 -249.8890450171769 239.89482945820276 -249.7421875 244 C-247.5866833030222 240.76674370453327 -246.27583025530356 237.5538106185328 -244.83984375 233.9609375 C-243.7421875 232 -243.7421875 232 -240.7421875 231 C-241.064453125 232.1227734375 -241.38671875 233.245546875 -241.71875 234.40234375 C-245.6865519981311 250.3824029477829 -242.76473690445812 268.43994170905563 -234.4375 282.5 C-226.93005883643946 293.5708809785225 -218.33402923955654 298.5845234151177 -206.1171875 303.375 C-196.28253700380856 307.3425014005505 -186.8121164870392 311.82389466167064 -177.3671875 316.625 C-166.62513551596496 322.084448418846 -155.81886532006092 327.2488361634764 -144.7421875 332 C-144.0821875 332.33 -143.4221875 332.66 -142.7421875 333 C-120.35279845955796 334.9768557547414 -101.96525965038074 329.9114390688203 -84.6796875 315.625 C-83.33369289020078 314.49461093410457 -81.98863226165207 313.3631087635879 -80.64453125 312.23046875 C-77.12967257806986 309.28048260804235 -73.50039827470789 306.5675504850824 -69.7421875 303.9375 C-64.51175275674666 300.26933436270326 -59.35405242974235 296.5196335505769 -54.2421875 292.6875 C-53.58347656249998 292.1956420898438 -52.924765624999964 291.7037841796875 -52.24609375 291.197021484375 C-50.99102851480836 290.2539580235248 -49.741151706204846 289.30394216388333 -48.4970703125 288.346435546875 C-47.36925091407113 287.48111501510886 -46.22869927026284 286.6320101173958 -45.0732421875 285.803955078125 C-40.76575498324553 282.5599039693688 -38.95204568770265 279.17343009680417 -36.9921875 274.3125 C-36.695622558593755 273.59553955078127 -36.39905761718751 272.87857910156254 -36.093505859375 272.139892578125 C-27.274776147155535 250.23275381166104 -32.459352388259674 226.91019148104363 -38.7421875 205 C-37.42218750000001 205 -36.102187500000014 205 -34.7421875 205 C-35.343554792125246 199.55189869872245 -36.643695732931576 194.71499793675991 -38.4921875 189.5625 C-38.76095703124997 188.8111376953125 -39.0297265625 188.059775390625 -39.306640625 187.28564453125 C-42.18441075746955 179.47382525321646 -45.96331829536473 173.55645782869817 -51.60546875 167.4453125 C-52.7421875 166 -52.7421875 166 -52.7421875 164 C-52.13890624999999 164.4215234375 -51.53562499999998 164.843046875 -50.9140625 165.27734375 C-49.71523437500002 166.09912109375 -49.71523437500002 166.09912109375 -48.4921875 166.9375 C-47.30882812499999 167.75541015625 -47.30882812499999 167.75541015625 -46.1015625 168.58984375 C-43.91581757158133 169.89622441085947 -42.22680740161695 170.5498051095694 -39.7421875 171 C-41.30586107299848 167.4776195302981 -43.43714639446608 164.72876006484802 -45.8671875 161.75 C-46.95386718750001 160.411953125 -46.95386718750001 160.411953125 -48.0625 159.046875 C-48.61679687499998 158.37140625 -49.17109375000001 157.6959375 -49.7421875 157 C-50.73218750000001 157.495 -50.73218750000001 157.495 -51.7421875 158 C-51.7421875 158.66 -51.7421875 159.32 -51.7421875 160 C-52.73218750000001 160 -53.72218750000002 160 -54.7421875 160 C-54.59781250000003 159.443125 -54.45343750000001 158.88625000000002 -54.3046875 158.3125 C-53.02672078406283 153.05863683448058 -52.5457178742588 148.40291470788202 -52.7421875 143 C-56.10810616392655 144.44253657025425 -58.25265828923057 146.3326472741756 -60.7421875 149 C-60.7421875 146.72999493456342 -60.2719350371691 144.89944452770493 -59.71875 142.6953125 C-54.701827266743805 122.17000319429695 -53.527560453050796 102.0132117834737 -52.495849609375 80.98583984375 C-51.93009138373992 69.6131501317237 -51.1084712086398 58.30817792895502 -49.7421875 47 C-50.07218750000004 47 -50.40218749999997 47 -50.7421875 47 Z M-250.7421875 244 C-249.7421875 246 -249.7421875 246 -249.7421875 246 Z " fill="#000000" transform="translate(346.7421875,21)"/>
<path d="M0 0 C1.3442805178511321 0.9852348284057371 2.6793157271121117 1.9833531443395316 4 3 C3.275224609375016 2.9842895507812557 2.550449218750032 2.9685791015625114 1.8037109375 2.952392578125 C-1.5474434896570983 2.8892185724587307 -4.898471967242131 2.850751135156486 -8.25 2.8125 C-9.959296875000007 2.7747949218750136 -9.959296875000007 2.7747949218750136 -11.703125 2.736328125 C-18.595217620368828 2.677588699258223 -24.64210933022605 3.3419598779136663 -31.2724609375 5.252685546875 C-34.16505089382656 6.045222053884999 -37.03656511901093 6.550144263652726 -40 7 C-40.33000000000001 6.340000000000003 -40.66 5.680000000000007 -41 5 C-30.65733090658202 -6.596325953226227 -13.239094508589233 -6.608496257208969 0 0 Z " fill="#000000" transform="translate(278,186)"/>
<path d="M0 0 C0.8125 1.9375 0.8125 1.9375 1 4 C-1.5009605554865573 6.500960555486557 -2.658058019028715 6.35323824740928 -6.125 6.75 C-11.50401384817161 7.5620491920549 -16.3159574846664 9.011474539722286 -21.375 10.9375 C-22.040317382812503 11.190478515624989 -22.705634765625007 11.443457031250006 -23.39111328125 11.7041015625 C-26.46349994259171 12.905903826715502 -29.376107513434278 14.200560894931101 -32.2890625 15.75390625 C-35 17 -35 17 -38 16 C-27.71103144121963 4.74139042520892 -16.459988416438506 -5.4866628054795115 0 0 Z " fill="#000000" transform="translate(166,196)"/>
<path d="M0 0 C7.327338129496411 4.327338129496411 7.327338129496411 4.327338129496411 10 7 C9.62865476597483 11.827488042327218 8.804149334768113 15.061728045392329 6 19 C3.6953125 20.765625 3.6953125 20.765625 1.125 22.25 C0.2819531249999727 22.750156250000003 -0.5610937499999977 23.250312500000007 -1.4296875 23.765625 C-3.9842256140384507 24.99242445902152 -6.208755318746341 25.579812628628474 -9 26 C-8.703515625000023 25.448281250000008 -8.407031249999989 24.896562500000016 -8.1015625 24.328125 C-6.923711957817659 21.838767116522433 -6.140342831887494 19.39391160106598 -5.375 16.75 C-4.9844140624999795 15.411953124999997 -4.9844140624999795 15.411953124999997 -4.5859375 14.046875 C-4.392578125 13.371406250000007 -4.19921875 12.695937500000014 -4 12 C-2.680000000000007 12 -1.3600000000000136 12 0 12 C0.49500000000000455 14.474999999999994 0.49500000000000455 14.474999999999994 1 17 C3.6611430912519722 13.749221586076857 3.6611430912519722 13.749221586076857 2 8 C-2.9499999999999886 6.349999999999994 -7.899999999999977 4.699999999999989 -13 3 C-12.339999999999975 4.650000000000006 -11.680000000000007 6.300000000000011 -11 8 C-10.373264578838302 14.476266018670998 -11.408396141715912 17.612594212573867 -15 23 C-20.75 23.125 -20.75 23.125 -23 22 C-25.08708012201626 15.738759633951219 -24.54971957836142 9.05558399860837 -22 3 C-24.55896277546549 4.098601663545594 -24.55896277546549 4.098601663545594 -27 6 C-27.859699167256707 8.70489571876223 -27.859699167256707 8.70489571876223 -27.875 11.75 C-27.923984375000003 12.817343749999992 -27.972968750000007 13.884687499999984 -28.0234375 14.984375 C-27.996570205791357 18.441300188180094 -27.567115043957358 21.597309736255852 -27 25 C-27.4375 27.125 -27.4375 27.125 -28 29 C-28.037869008922144 30.666236392574888 -28.04627844540059 32.333975965578816 -28 34 C-28.99000000000001 34.495000000000005 -28.99000000000001 34.495000000000005 -30 35 C-33.71959051318106 25.302496162063704 -35.273457895743974 16.371224664437392 -34 6 C-32.01945554381564 1.9147743980698522 -29.717845874515206 -0.3975078878393674 -26 -3 C-17.182739756670372 -5.9390867477765426 -8.13772334874443 -3.9900312693545743 0 0 Z " fill="#000000" transform="translate(271,215)"/>
<path d="M0 0 C5.542496101727721 4.982018967845136 7.683012597500493 13.260894871255744 8.3125 20.5 C8.626785714285717 28.871428571428567 8.626785714285717 28.871428571428567 7.3125 31.5 C6.322499999999991 31.170000000000016 5.33250000000001 30.840000000000003 4.3125 30.5 C3.46875 28.50390625 3.46875 28.50390625 2.8125 26.0625 C1.7524231111908648 22.045551466415134 1.7524231111908648 22.045551466415134 -1.6875 19.5 C-1.7532740820135473 17.55966458060081 -1.8045833311132924 15.615662823589531 -1.7265625 13.67578125 C-1.6701421336574356 10.533166844718977 -2.1715180738944184 7.595891556633433 -2.6875 4.5 C-5.162499999999994 4.0049999999999955 -5.162499999999994 4.0049999999999955 -7.6875 3.5 C-7.447734374999982 4.352714843749993 -7.447734374999982 4.352714843749993 -7.203125 5.22265625 C-6.107375889533955 10.062214821224984 -5.946980139001823 14.796804319704194 -7.9375 19.375 C-11.13848039215685 23.26190476190476 -11.13848039215685 23.26190476190476 -13.6875 24.5 C-16.8125 23.9375 -16.8125 23.9375 -19.6875 22.5 C-22.489119965338432 18.140869274270045 -22.456901294609793 13.504843372704585 -21.6875 8.5 C-20.333735097548328 5.566056552874755 -18.675133274367994 3.0413311150847733 -16.6875 0.5 C-21.643761961595033 1.9725126117782281 -26.4276964603323 3.7075397058593182 -31.125 5.875 C-31.94871093750001 6.2539843749999875 -32.77242187499999 6.632968750000003 -33.62109375 7.0234375 C-36.24799145886922 8.900502403502003 -36.901191856011565 10.39818321113762 -37.6875 13.5 C-36.56832060493818 16.338598049975047 -36.56832060493818 16.338598049975047 -34.6875 18.5 C-34.0275 18.5 -33.36750000000001 18.5 -32.6875 18.5 C-33.01750000000001 16.52000000000001 -33.3475 14.539999999999992 -33.6875 12.5 C-32.037499999999994 12.170000000000016 -30.38749999999999 11.840000000000003 -28.6875 11.5 C-28.182788033176877 13.26949612177873 -27.68389315070442 15.040652225957842 -27.1875 16.8125 C-26.909062500000005 17.79863281249999 -26.63062500000001 18.784765625000006 -26.34375 19.80078125 C-25.6875 22.5 -25.6875 22.5 -25.6875 25.5 C-38.97916666666666 22.032608695652186 -38.97916666666666 22.032608695652186 -43.125 16.625 C-43.96580481753037 13.448626244885276 -43.677395429620276 11.655291681914605 -42.6875 8.5 C-38.509071579680466 1.9648801177009148 -32.252115334908524 -2.6526116769620387 -24.8125 -4.8125 C-15.441852413409151 -6.727131333998926 -7.838622841408892 -5.746109116795509 0 0 Z " fill="#000000" transform="translate(172.6875,223.5)"/>
<path d="M0 0 C0.9900000000000091 0.3300000000000125 1.9799999999999898 0.6599999999999966 3 1 C3 1.6599999999999966 3 2.319999999999993 3 3 C1.3499999999999943 3.6599999999999966 -0.30000000000001137 4.319999999999993 -2 5 C-2 2 -2 2 0 0 Z " fill="#000000" transform="translate(167,248)"/>
<path d="M0 0 C3.249314997515029 2.50468031058449 4.681014885531397 4.062981226248496 6 7.9375 C6 13.78401897554005 2.583218942015719 18.247121120315114 -1.22265625 22.453125 C-6.951481457398245 27.43909155413121 -14.454190547119254 27.480595570745038 -21.7109375 27.28515625 C-28.256628596389533 26.717655715514923 -33.904840283730834 25.710334462260562 -39.0625 21.5 C-43.01319127346525 16.402333840690005 -43.01319127346525 16.402333840690005 -42.875 12.1875 C-42.17538604090609 7.95094880326468 -40.938190762906515 5.23200983919719 -38 2 C-27.32403529118946 -4.24593823150974 -11.152278919559734 -6.034782965129693 0 0 Z M-17 9 C-16.670000000000016 9.660000000000025 -16.340000000000003 10.319999999999993 -16 11 C-15.009999999999991 10.339999999999975 -14.02000000000001 9.680000000000007 -13 9 C-14.319999999999993 9 -15.639999999999986 9 -17 9 Z M-27 10 C-27 10.329999999999984 -27 10.660000000000025 -27 11 C-24.360000000000014 11 -21.72 11 -19 11 C-19 10.670000000000016 -19 10.339999999999975 -19 10 C-21.639999999999986 10 -24.28 10 -27 10 Z " fill="#000000" transform="translate(235,270)"/>
<path d="M0 0 C5.12735874660774 2.41671686145844 8.606298509152964 5.515535099805902 10.8125 10.8125 C12.59136032671006 16.210070477045974 12.797694967323821 20.816834826271702 10.8125 26.25 C8.782565852720495 29.329900085527584 7.029329353715525 30.892640449589237 4 33 C3.4142822265625057 33.49032714843747 2.8285644531250114 33.980654296875 2.22509765625 34.48583984375 C-4.476548937439475 39.688705488744176 -10.232832379503577 39.74895726136367 -18.5 39.625 C-31.842410686254254 39.75177287258839 -42.935578208172785 41.69213604687741 -55.5625 45.8125 C-61.57185535578458 47.66309674239051 -66.3520092448995 46.90068345535644 -72.125 44.375 C-77.3166511921693 41.503240187008714 -80.90543077756519 38.07876704693365 -82.91796875 32.41796875 C-84.4099573148657 25.95268496891532 -84.09362903235103 20.90081093207698 -81 15 C-79.10272871660476 12.015881259560445 -77.35959814366467 9.413042474024735 -73.83984375 8.34375 C-73.2326953125 8.230312500000025 -72.625546875 8.116874999999993 -72 8 C-72.66 9.072499999999991 -73.32 10.144999999999982 -74 11.25 C-77.22392953746586 17.697859074931728 -77.05193995361935 24.72729792207309 -74.875 31.5 C-70.65711996396684 37.1238400480442 -65.51591836665551 38.90982826787484 -58.7734375 39.94921875 C-55.04196193040471 40.017541542119375 -52.84363188459008 38.846155975358045 -49.5859375 37.16015625 C-40.721240021533504 33.18309408821062 -31.3807223935884 32.88861662506895 -21.86328125 33.35888671875 C-10.918303538844526 34.12403749039822 -10.918303538844526 34.12403749039822 -1.359130859375 29.580322265625 C1.607603621977887 26.543278775440456 3.661896869970434 23.649841589392338 4.51953125 19.46484375 C4.358456199951377 16.787515215408234 3.7863551925336765 14.564201714783678 3 12 C2.4787218876826387 9.791771614655545 1.9578937063571118 7.583436972749325 1.4375 5.375 C0.9653966909485518 3.581459199106007 0.4887669682153444 1.7890715440335043 0 0 Z " fill="#000000" transform="translate(252,283)"/>
</svg>
